<mxfile host="app.diagrams.net" modified="2023-12-29T00:50:32.061Z" agent="Mozilla/5.0 (Windows NT 10.0; Win64; x64; rv:121.0) Gecko/20100101 Firefox/121.0" etag="4CQ-Xs_Twztkc-my2mhx" version="22.1.15" type="github">
  <diagram id="a45cf8ec-cd66-6f27-3ac3-be6e809c9e4a" name="Page-1">
    <mxGraphModel dx="1554" dy="922" grid="1" gridSize="10" guides="1" tooltips="1" connect="1" arrows="1" fold="1" page="1" pageScale="1" pageWidth="827" pageHeight="1169" background="none" math="0" shadow="0">
      <root>
        <mxCell id="0" />
        <mxCell id="1" parent="0" />
        <mxCell id="yOUbkb8BRqIbrv49rqf4-174" value="" style="group" vertex="1" connectable="0" parent="1">
          <mxGeometry x="400" y="50" width="95" height="62" as="geometry" />
        </mxCell>
        <mxCell id="yOUbkb8BRqIbrv49rqf4-172" value="" style="verticalLabelPosition=bottom;sketch=0;aspect=fixed;html=1;verticalAlign=top;strokeColor=none;align=center;outlineConnect=0;shape=mxgraph.citrix.cloud;" vertex="1" parent="yOUbkb8BRqIbrv49rqf4-174">
          <mxGeometry width="95" height="62" as="geometry" />
        </mxCell>
        <mxCell id="yOUbkb8BRqIbrv49rqf4-173" value="&lt;div&gt;Internet&lt;/div&gt;" style="text;html=1;strokeColor=none;fillColor=none;align=center;verticalAlign=middle;whiteSpace=wrap;rounded=0;" vertex="1" parent="yOUbkb8BRqIbrv49rqf4-174">
          <mxGeometry x="17.5" y="16" width="60" height="30" as="geometry" />
        </mxCell>
        <mxCell id="yOUbkb8BRqIbrv49rqf4-176" value="" style="curved=1;endArrow=classic;html=1;rounded=0;" edge="1" parent="1" source="yOUbkb8BRqIbrv49rqf4-172" target="yOUbkb8BRqIbrv49rqf4-175">
          <mxGeometry width="50" height="50" relative="1" as="geometry">
            <mxPoint x="800" y="470" as="sourcePoint" />
            <mxPoint x="850" y="420" as="targetPoint" />
            <Array as="points">
              <mxPoint x="520" y="100" />
              <mxPoint x="510" y="60" />
            </Array>
          </mxGeometry>
        </mxCell>
        <mxCell id="yOUbkb8BRqIbrv49rqf4-183" style="edgeStyle=orthogonalEdgeStyle;rounded=0;orthogonalLoop=1;jettySize=auto;html=1;exitX=0.1;exitY=1;exitDx=0;exitDy=0;exitPerimeter=0;entryX=0.25;entryY=0;entryDx=0;entryDy=0;" edge="1" parent="1" source="yOUbkb8BRqIbrv49rqf4-177" target="yOUbkb8BRqIbrv49rqf4-179">
          <mxGeometry relative="1" as="geometry" />
        </mxCell>
        <mxCell id="yOUbkb8BRqIbrv49rqf4-178" value="" style="endArrow=classic;startArrow=classic;html=1;rounded=0;exitX=0.5;exitY=0;exitDx=0;exitDy=0;exitPerimeter=0;" edge="1" parent="1" source="yOUbkb8BRqIbrv49rqf4-177" target="yOUbkb8BRqIbrv49rqf4-175">
          <mxGeometry width="50" height="50" relative="1" as="geometry">
            <mxPoint x="800" y="470" as="sourcePoint" />
            <mxPoint x="850" y="420" as="targetPoint" />
          </mxGeometry>
        </mxCell>
        <mxCell id="yOUbkb8BRqIbrv49rqf4-189" value="" style="group" vertex="1" connectable="0" parent="1">
          <mxGeometry x="560" y="38.5" width="100" height="85" as="geometry" />
        </mxCell>
        <mxCell id="yOUbkb8BRqIbrv49rqf4-175" value="" style="fontColor=#0066CC;verticalAlign=top;verticalLabelPosition=bottom;labelPosition=center;align=center;html=1;outlineConnect=0;fillColor=#CCCCCC;strokeColor=#6881B3;gradientColor=none;gradientDirection=north;strokeWidth=2;shape=mxgraph.networks.wireless_modem;" vertex="1" parent="yOUbkb8BRqIbrv49rqf4-189">
          <mxGeometry width="100" height="85" as="geometry" />
        </mxCell>
        <mxCell id="yOUbkb8BRqIbrv49rqf4-188" value="&lt;div&gt;Shaw Modem&lt;/div&gt;" style="text;html=1;strokeColor=none;fillColor=none;align=center;verticalAlign=middle;whiteSpace=wrap;rounded=0;" vertex="1" parent="yOUbkb8BRqIbrv49rqf4-189">
          <mxGeometry x="20" y="21.5" width="60" height="30" as="geometry" />
        </mxCell>
        <mxCell id="yOUbkb8BRqIbrv49rqf4-191" value="" style="group" vertex="1" connectable="0" parent="1">
          <mxGeometry x="560" y="200" width="100" height="30" as="geometry" />
        </mxCell>
        <mxCell id="yOUbkb8BRqIbrv49rqf4-177" value="" style="fontColor=#0066CC;verticalAlign=top;verticalLabelPosition=bottom;labelPosition=center;align=center;html=1;outlineConnect=0;fillColor=#CCCCCC;strokeColor=#6881B3;gradientColor=none;gradientDirection=north;strokeWidth=2;shape=mxgraph.networks.router;" vertex="1" parent="yOUbkb8BRqIbrv49rqf4-191">
          <mxGeometry width="100" height="30" as="geometry" />
        </mxCell>
        <mxCell id="yOUbkb8BRqIbrv49rqf4-190" value="pfsense" style="text;html=1;strokeColor=none;fillColor=none;align=center;verticalAlign=middle;whiteSpace=wrap;rounded=0;" vertex="1" parent="yOUbkb8BRqIbrv49rqf4-191">
          <mxGeometry x="20" width="60" height="30" as="geometry" />
        </mxCell>
        <mxCell id="yOUbkb8BRqIbrv49rqf4-193" value="" style="group" vertex="1" connectable="0" parent="1">
          <mxGeometry x="30" y="280" width="490" height="540" as="geometry" />
        </mxCell>
        <mxCell id="yOUbkb8BRqIbrv49rqf4-181" value="" style="group" vertex="1" connectable="0" parent="yOUbkb8BRqIbrv49rqf4-193">
          <mxGeometry y="40" width="490" height="500" as="geometry" />
        </mxCell>
        <mxCell id="yOUbkb8BRqIbrv49rqf4-179" value="" style="shape=ext;double=1;rounded=1;whiteSpace=wrap;html=1;" vertex="1" parent="yOUbkb8BRqIbrv49rqf4-181">
          <mxGeometry y="-50" width="420" height="550" as="geometry" />
        </mxCell>
        <mxCell id="yOUbkb8BRqIbrv49rqf4-187" value="" style="group" vertex="1" connectable="0" parent="yOUbkb8BRqIbrv49rqf4-181">
          <mxGeometry x="20" y="60" width="100" height="70" as="geometry" />
        </mxCell>
        <mxCell id="yOUbkb8BRqIbrv49rqf4-185" value="" style="fontColor=#0066CC;verticalAlign=top;verticalLabelPosition=bottom;labelPosition=center;align=center;html=1;outlineConnect=0;fillColor=#CCCCCC;strokeColor=#6881B3;gradientColor=none;gradientDirection=north;strokeWidth=2;shape=mxgraph.networks.switch;" vertex="1" parent="yOUbkb8BRqIbrv49rqf4-187">
          <mxGeometry width="100" height="30" as="geometry" />
        </mxCell>
        <mxCell id="yOUbkb8BRqIbrv49rqf4-186" value="&lt;div&gt;HP Procurve&lt;/div&gt;&lt;div&gt;192.168.10.2&lt;br&gt;&lt;/div&gt;" style="text;html=1;strokeColor=none;fillColor=none;align=center;verticalAlign=middle;whiteSpace=wrap;rounded=0;" vertex="1" parent="yOUbkb8BRqIbrv49rqf4-187">
          <mxGeometry x="20" y="40" width="60" height="30" as="geometry" />
        </mxCell>
        <mxCell id="yOUbkb8BRqIbrv49rqf4-195" value="" style="group" vertex="1" connectable="0" parent="yOUbkb8BRqIbrv49rqf4-181">
          <mxGeometry x="140" width="100" height="90" as="geometry" />
        </mxCell>
        <mxCell id="yOUbkb8BRqIbrv49rqf4-192" value="" style="fontColor=#0066CC;verticalAlign=top;verticalLabelPosition=bottom;labelPosition=center;align=center;html=1;outlineConnect=0;fillColor=#CCCCCC;strokeColor=#6881B3;gradientColor=none;gradientDirection=north;strokeWidth=2;shape=mxgraph.networks.wireless_modem;" vertex="1" parent="yOUbkb8BRqIbrv49rqf4-195">
          <mxGeometry width="100" height="90" as="geometry" />
        </mxCell>
        <mxCell id="yOUbkb8BRqIbrv49rqf4-194" value="&lt;div&gt;AP1&lt;/div&gt;&lt;div&gt;Basement&lt;/div&gt;&lt;div&gt;192.168.10.21&lt;br&gt;&lt;/div&gt;" style="text;html=1;strokeColor=none;fillColor=none;align=center;verticalAlign=middle;whiteSpace=wrap;rounded=0;" vertex="1" parent="yOUbkb8BRqIbrv49rqf4-195">
          <mxGeometry x="20" y="20" width="60" height="30" as="geometry" />
        </mxCell>
        <mxCell id="yOUbkb8BRqIbrv49rqf4-196" value="" style="group" vertex="1" connectable="0" parent="yOUbkb8BRqIbrv49rqf4-181">
          <mxGeometry x="260" width="100" height="90" as="geometry" />
        </mxCell>
        <mxCell id="yOUbkb8BRqIbrv49rqf4-197" value="" style="fontColor=#0066CC;verticalAlign=top;verticalLabelPosition=bottom;labelPosition=center;align=center;html=1;outlineConnect=0;fillColor=#CCCCCC;strokeColor=#6881B3;gradientColor=none;gradientDirection=north;strokeWidth=2;shape=mxgraph.networks.wireless_modem;" vertex="1" parent="yOUbkb8BRqIbrv49rqf4-196">
          <mxGeometry width="100" height="90" as="geometry" />
        </mxCell>
        <mxCell id="yOUbkb8BRqIbrv49rqf4-198" value="&lt;div&gt;AP2&lt;/div&gt;&lt;div&gt;Office&lt;/div&gt;&lt;div&gt;192.168.10.22&lt;br&gt;&lt;/div&gt;" style="text;html=1;strokeColor=none;fillColor=none;align=center;verticalAlign=middle;whiteSpace=wrap;rounded=0;" vertex="1" parent="yOUbkb8BRqIbrv49rqf4-196">
          <mxGeometry x="20" y="20" width="60" height="30" as="geometry" />
        </mxCell>
        <mxCell id="yOUbkb8BRqIbrv49rqf4-202" value="" style="group" vertex="1" connectable="0" parent="yOUbkb8BRqIbrv49rqf4-181">
          <mxGeometry x="20" y="159" width="105" height="135" as="geometry" />
        </mxCell>
        <mxCell id="yOUbkb8BRqIbrv49rqf4-199" value="" style="fontColor=#0066CC;verticalAlign=top;verticalLabelPosition=bottom;labelPosition=center;align=center;html=1;outlineConnect=0;fillColor=#CCCCCC;strokeColor=#6881B3;gradientColor=none;gradientDirection=north;strokeWidth=2;shape=mxgraph.networks.server_storage;" vertex="1" parent="yOUbkb8BRqIbrv49rqf4-202">
          <mxGeometry width="105" height="105" as="geometry" />
        </mxCell>
        <mxCell id="yOUbkb8BRqIbrv49rqf4-201" value="&lt;div&gt;Laconia&lt;/div&gt;&lt;div&gt;192.168.10.3&lt;/div&gt;" style="text;html=1;strokeColor=none;fillColor=none;align=center;verticalAlign=middle;whiteSpace=wrap;rounded=0;" vertex="1" parent="yOUbkb8BRqIbrv49rqf4-202">
          <mxGeometry x="20" y="105" width="60" height="30" as="geometry" />
        </mxCell>
        <mxCell id="yOUbkb8BRqIbrv49rqf4-205" value="" style="group" vertex="1" connectable="0" parent="yOUbkb8BRqIbrv49rqf4-181">
          <mxGeometry x="38" y="310" width="65" height="130" as="geometry" />
        </mxCell>
        <mxCell id="yOUbkb8BRqIbrv49rqf4-203" value="" style="verticalLabelPosition=bottom;sketch=0;aspect=fixed;html=1;verticalAlign=top;strokeColor=none;align=center;outlineConnect=0;shape=mxgraph.citrix.tower_server;" vertex="1" parent="yOUbkb8BRqIbrv49rqf4-205">
          <mxGeometry width="65" height="85" as="geometry" />
        </mxCell>
        <mxCell id="yOUbkb8BRqIbrv49rqf4-204" value="&lt;div&gt;Mars&lt;/div&gt;&lt;div&gt;192.168.10.5&lt;br&gt;&lt;/div&gt;" style="text;html=1;strokeColor=none;fillColor=none;align=center;verticalAlign=middle;whiteSpace=wrap;rounded=0;" vertex="1" parent="yOUbkb8BRqIbrv49rqf4-205">
          <mxGeometry x="2" y="100" width="60" height="30" as="geometry" />
        </mxCell>
        <mxCell id="yOUbkb8BRqIbrv49rqf4-180" value="Infra VLAN 192.168.10.0/24" style="text;html=1;strokeColor=none;fillColor=none;align=center;verticalAlign=middle;whiteSpace=wrap;rounded=0;" vertex="1" parent="yOUbkb8BRqIbrv49rqf4-193">
          <mxGeometry x="185" width="60" height="30" as="geometry" />
        </mxCell>
        <mxCell id="yOUbkb8BRqIbrv49rqf4-208" value="" style="group" vertex="1" connectable="0" parent="1">
          <mxGeometry x="30" y="870" width="410" height="410" as="geometry" />
        </mxCell>
        <mxCell id="yOUbkb8BRqIbrv49rqf4-207" value="Mars Services" style="text;html=1;strokeColor=none;fillColor=none;align=center;verticalAlign=middle;whiteSpace=wrap;rounded=0;" vertex="1" parent="yOUbkb8BRqIbrv49rqf4-208">
          <mxGeometry x="160" width="60" height="30" as="geometry" />
        </mxCell>
        <mxCell id="yOUbkb8BRqIbrv49rqf4-211" value="" style="group" vertex="1" connectable="0" parent="yOUbkb8BRqIbrv49rqf4-208">
          <mxGeometry width="410" height="410" as="geometry" />
        </mxCell>
        <mxCell id="yOUbkb8BRqIbrv49rqf4-206" value="" style="whiteSpace=wrap;html=1;aspect=fixed;" vertex="1" parent="yOUbkb8BRqIbrv49rqf4-211">
          <mxGeometry width="410" height="410" as="geometry" />
        </mxCell>
        <mxCell id="yOUbkb8BRqIbrv49rqf4-216" value="" style="group" vertex="1" connectable="0" parent="yOUbkb8BRqIbrv49rqf4-211">
          <mxGeometry x="85" y="50" width="60" height="81" as="geometry" />
        </mxCell>
        <mxCell id="yOUbkb8BRqIbrv49rqf4-213" value="" style="image;sketch=0;aspect=fixed;html=1;points=[];align=center;fontSize=12;image=img/lib/mscae/Docker.svg;" vertex="1" parent="yOUbkb8BRqIbrv49rqf4-216">
          <mxGeometry x="5" width="50" height="41" as="geometry" />
        </mxCell>
        <mxCell id="yOUbkb8BRqIbrv49rqf4-214" value="Downloads" style="text;html=1;strokeColor=none;fillColor=none;align=center;verticalAlign=middle;whiteSpace=wrap;rounded=0;" vertex="1" parent="yOUbkb8BRqIbrv49rqf4-216">
          <mxGeometry y="51" width="60" height="30" as="geometry" />
        </mxCell>
        <mxCell id="yOUbkb8BRqIbrv49rqf4-217" value="" style="group" vertex="1" connectable="0" parent="yOUbkb8BRqIbrv49rqf4-211">
          <mxGeometry x="170" y="50" width="60" height="81" as="geometry" />
        </mxCell>
        <mxCell id="yOUbkb8BRqIbrv49rqf4-218" value="" style="image;sketch=0;aspect=fixed;html=1;points=[];align=center;fontSize=12;image=img/lib/mscae/Docker.svg;" vertex="1" parent="yOUbkb8BRqIbrv49rqf4-217">
          <mxGeometry x="5" width="50" height="41" as="geometry" />
        </mxCell>
        <mxCell id="yOUbkb8BRqIbrv49rqf4-219" value="Miniflux" style="text;html=1;strokeColor=none;fillColor=none;align=center;verticalAlign=middle;whiteSpace=wrap;rounded=0;" vertex="1" parent="yOUbkb8BRqIbrv49rqf4-217">
          <mxGeometry y="51" width="60" height="30" as="geometry" />
        </mxCell>
        <mxCell id="yOUbkb8BRqIbrv49rqf4-220" value="" style="group" vertex="1" connectable="0" parent="yOUbkb8BRqIbrv49rqf4-211">
          <mxGeometry x="10" y="50" width="60" height="81" as="geometry" />
        </mxCell>
        <mxCell id="yOUbkb8BRqIbrv49rqf4-221" value="" style="image;sketch=0;aspect=fixed;html=1;points=[];align=center;fontSize=12;image=img/lib/mscae/Docker.svg;" vertex="1" parent="yOUbkb8BRqIbrv49rqf4-220">
          <mxGeometry x="5" width="50" height="41" as="geometry" />
        </mxCell>
        <mxCell id="yOUbkb8BRqIbrv49rqf4-222" value="Jellyfin" style="text;html=1;strokeColor=none;fillColor=none;align=center;verticalAlign=middle;whiteSpace=wrap;rounded=0;" vertex="1" parent="yOUbkb8BRqIbrv49rqf4-220">
          <mxGeometry y="51" width="60" height="30" as="geometry" />
        </mxCell>
        <mxCell id="yOUbkb8BRqIbrv49rqf4-212" value="" style="endArrow=classic;startArrow=classic;html=1;rounded=0;exitX=0.5;exitY=0;exitDx=0;exitDy=0;" edge="1" parent="1" source="yOUbkb8BRqIbrv49rqf4-206" target="yOUbkb8BRqIbrv49rqf4-203">
          <mxGeometry width="50" height="50" relative="1" as="geometry">
            <mxPoint x="140" y="810" as="sourcePoint" />
            <mxPoint x="190" y="760" as="targetPoint" />
          </mxGeometry>
        </mxCell>
      </root>
    </mxGraphModel>
  </diagram>
</mxfile>
